<svg xmlns="http://www.w3.org/2000/svg" width="24" height="24" viewBox="0 0 256 256" fill="white"><path d="M230.08,56a28,28,0,0,0-30.72-5.43l-47,21-47.23-47.24a8,8,0,0,0-8.48-1.74L68.37,33.9a8,8,0,0,0-2,13.47L113.16,88,71.29,107.56,52.51,92.68A8,8,0,0,0,43,92.37L25.37,104.11a8,8,0,0,0-.71,12.76l41.81,35.7,35.7,41.81a8,8,0,0,0,12.76-.71L126.68,176a8,8,0,0,0-.31-9.52L111.5,147.66,131.05,105.8l50.66,46.93a8,8,0,0,0,13.47-2l11.27-27.79A8,8,0,0,0,204.72,114L157.49,66.76l21-47A28,28,0,0,0,230.08,56Z"/></svg>
