<svg xmlns="http://www.w3.org/2000/svg" width="160" height="160" viewBox="0 0 160 160" fill="none">
    <path d="M115.831 71.3812L134.044 54.2437L134.15 54.1375C137.901 50.3863 140.009 45.2987 140.009 39.9937C140.009 34.6888 137.901 29.6011 134.15 25.85C130.399 22.0988 125.311 19.9915 120.006 19.9915C114.701 19.9915 109.614 22.0988 105.863 25.85C105.863 25.8875 105.794 25.9187 105.756 25.9562L88.6187 44.1687L36.7437 25.2937C35.8497 24.9685 34.8814 24.9052 33.9525 25.1111C33.0237 25.317 32.1729 25.7837 31.5 26.4562L16.5 41.4562C15.9773 41.9794 15.5772 42.6119 15.3284 43.3083C15.0796 44.0047 14.9884 44.7476 15.0613 45.4835C15.1342 46.2194 15.3695 46.9299 15.7501 47.5639C16.1308 48.198 16.6473 48.7396 17.2625 49.15L57.1938 75.7687L47.9313 85H35C33.6757 85.0006 32.4057 85.5266 31.4688 86.4625L16.4688 101.462C15.8838 102.046 15.4525 102.765 15.2136 103.556C14.9746 104.347 14.9354 105.185 15.0995 105.995C15.2636 106.805 15.6258 107.562 16.1538 108.197C16.6817 108.833 17.359 109.328 18.125 109.637L41.1375 118.844L50.325 141.812L50.3625 141.912C50.6803 142.682 51.1852 143.36 51.8314 143.884C52.4775 144.409 53.2445 144.764 54.0627 144.918C54.8809 145.071 55.7244 145.018 56.5167 144.763C57.3091 144.507 58.0252 144.058 58.6 143.456L73.5187 128.531C73.9856 128.069 74.3567 127.519 74.6108 126.913C74.865 126.307 74.9972 125.657 75 125V112.069L84.225 102.844L110.844 142.775C111.254 143.39 111.796 143.907 112.43 144.287C113.064 144.668 113.774 144.903 114.51 144.976C115.246 145.049 115.989 144.958 116.685 144.709C117.382 144.46 118.014 144.06 118.538 143.537L133.538 128.537C134.21 127.865 134.677 127.014 134.883 126.085C135.089 125.156 135.025 124.188 134.7 123.294L115.831 71.3812ZM115.787 132.15L89.1687 92.225C88.7607 91.6051 88.2197 91.0838 87.5852 90.6989C86.9506 90.3141 86.2383 90.0753 85.5 90C85.3313 90 85.1687 90 85.0062 90C84.349 90.0003 83.6983 90.1302 83.0913 90.3822C82.4843 90.6342 81.9329 91.0034 81.4688 91.4687L66.4688 106.469C65.5305 107.405 65.0023 108.675 65 110V122.931L56.8313 131.1L49.6437 113.125C49.3923 112.501 49.0174 111.934 48.5417 111.458C48.0659 110.983 47.4991 110.608 46.875 110.356L28.9125 103.169L37.075 95H50C50.6568 95.0005 51.3073 94.8716 51.9142 94.6207C52.5212 94.3697 53.0728 94.0017 53.5375 93.5375L68.5375 78.5375C69.0613 78.0144 69.4625 77.3814 69.7119 76.6844C69.9614 75.9873 70.0529 75.2436 69.98 74.5069C69.907 73.7702 69.6714 73.0588 69.2901 72.4243C68.9087 71.7897 68.3913 71.2477 67.775 70.8375L27.85 44.2125L36.2875 35.7812L88.3 54.6937C89.2164 55.0305 90.2114 55.0915 91.1621 54.8694C92.1128 54.6473 92.9777 54.1517 93.65 53.4437L112.988 32.875C114.872 31.0453 117.401 30.0307 120.028 30.0505C122.655 30.0702 125.168 31.1228 127.026 32.9807C128.883 34.8385 129.934 37.3525 129.953 39.9793C129.971 42.6061 128.956 45.1347 127.125 47.0187L106.581 66.35C105.873 67.0223 105.378 67.8872 105.156 68.8379C104.933 69.7886 104.995 70.7836 105.331 71.7L124.244 123.712L115.787 132.15Z" fill="white"/>
</svg>