<svg xmlns="http://www.w3.org/2000/svg" width="160" height="160" viewBox="0 0 160 160" fill="none">
    <g clip-path="url(#clip0_1266_74)">
        <path d="M130 70C126.385 69.9984 122.8 70.6528 119.419 71.9312L103.706 45H120C121.326 45 122.598 45.5268 123.536 46.4645C124.473 47.4021 125 48.6739 125 50C125 51.3261 125.527 52.5979 126.464 53.5355C127.402 54.4732 128.674 55 130 55C131.326 55 132.598 54.4732 133.536 53.5355C134.473 52.5979 135 51.3261 135 50C135 46.0218 133.42 42.2064 130.607 39.3934C127.794 36.5804 123.978 35 120 35H95C94.1233 35.002 93.2625 35.2345 92.504 35.6741C91.7455 36.1138 91.1159 36.7452 90.6784 37.5049C90.2409 38.2647 90.0109 39.1261 90.0114 40.0028C90.0119 40.8796 90.2429 41.7407 90.6812 42.5L97.9625 55H62.0375L51.8187 37.5C51.3809 36.7416 50.7515 36.1115 49.9935 35.6727C49.2356 35.234 48.3758 35.002 47.5 35H30C28.6739 35 27.4021 35.5268 26.4645 36.4645C25.5268 37.4021 25 38.6739 25 40C25 41.3261 25.5268 42.5979 26.4645 43.5355C27.4021 44.4732 28.6739 45 30 45H44.6312L53.2 59.6938L43.3812 73.1625C36.6351 69.7865 28.8668 69.0684 21.6161 71.1506C14.3654 73.2328 8.16178 77.9633 4.23486 84.4044C0.307949 90.8454 -1.05554 98.5268 0.414671 105.926C1.88488 113.325 6.08147 119.902 12.1726 124.352C18.2636 128.802 25.8045 130.802 33.3004 129.954C40.7964 129.106 47.7001 125.472 52.643 119.774C57.586 114.075 60.2074 106.727 59.9876 99.1868C59.7678 91.6462 56.7228 84.4635 51.4562 79.0625L58.7 69.125L78.1812 102.5C78.4857 103.111 78.9122 103.654 79.4344 104.094C79.9566 104.535 80.5635 104.863 81.2176 105.06C81.8717 105.256 82.5591 105.317 83.2376 105.238C83.916 105.158 84.571 104.941 85.1621 104.599C85.7532 104.257 86.268 103.797 86.6746 103.248C87.0812 102.699 87.3711 102.073 87.5263 101.408C87.6815 100.743 87.6988 100.053 87.5771 99.3806C87.4555 98.7085 87.1973 98.0685 86.8187 97.5L67.8687 65H103.794L110.787 76.9812C105.373 81.5067 101.727 87.7961 100.491 94.7436C99.2541 101.691 100.506 108.852 104.027 114.968C107.548 121.084 113.112 125.762 119.741 128.182C126.37 130.601 133.64 130.606 140.272 128.196C146.905 125.786 152.475 121.115 156.005 115.005C159.534 108.894 160.796 101.735 159.57 94.7853C158.343 87.836 154.706 81.5416 149.298 77.0085C143.89 72.4753 137.057 69.9938 130 70ZM50 100C50.0012 104.278 48.6307 108.443 46.0899 111.885C43.5491 115.326 39.9717 117.862 35.8832 119.121C31.7946 120.379 27.4104 120.293 23.3741 118.876C19.3379 117.459 15.8624 114.785 13.4581 111.247C11.0537 107.709 9.8471 103.493 10.0155 99.2182C10.1839 94.9438 11.7184 90.8359 14.3937 87.4978C17.069 84.1598 20.744 81.7675 24.8792 80.6722C29.0144 79.5769 33.3919 79.8364 37.3687 81.4125L25.9625 97.0375C25.5472 97.5657 25.2427 98.1721 25.067 98.8207C24.8913 99.4692 24.8482 100.146 24.9401 100.812C25.032 101.478 25.2572 102.118 25.6021 102.694C25.9469 103.271 26.4045 103.772 26.9474 104.168C27.4903 104.564 28.1074 104.846 28.7619 104.998C29.4163 105.15 30.0947 105.169 30.7565 105.053C31.4183 104.937 32.0499 104.689 32.6137 104.323C33.1774 103.957 33.6616 103.482 34.0375 102.925L45.4437 87.3C48.3932 90.8746 50.0044 95.3656 50 100ZM130 120C126.039 119.997 122.168 118.818 118.877 116.612C115.587 114.406 113.026 111.272 111.519 107.609C110.012 103.945 109.627 99.9168 110.412 96.0341C111.198 92.1515 113.119 88.5896 115.931 85.8L125.681 102.5C125.986 103.111 126.412 103.654 126.934 104.094C127.457 104.535 128.063 104.863 128.718 105.06C129.372 105.256 130.059 105.317 130.738 105.238C131.416 105.158 132.071 104.941 132.662 104.599C133.253 104.257 133.768 103.797 134.175 103.248C134.581 102.699 134.871 102.073 135.026 101.408C135.182 100.743 135.199 100.053 135.077 99.3806C134.955 98.7085 134.697 98.0685 134.319 97.5L124.562 80.7563C127.314 79.9774 130.2 79.7976 133.026 80.2287C135.853 80.6599 138.554 81.692 140.948 83.2557C143.341 84.8193 145.372 86.878 146.903 89.2929C148.433 91.7079 149.429 94.4229 149.821 97.2551C150.213 100.087 149.994 102.971 149.178 105.711C148.361 108.451 146.967 110.984 145.088 113.14C143.21 115.295 140.891 117.023 138.288 118.206C135.685 119.39 132.859 120.001 130 120Z" fill="white"/>
    </g>
    <defs>
        <clipPath id="clip0_1266_74">
            <rect width="160" height="160" fill="white"/>
        </clipPath>
    </defs>
</svg>