<svg xmlns="http://www.w3.org/2000/svg" width="24" height="24" viewBox="0 0 256 256" fill="white"><path d="M208,112a95.74,95.74,0,0,0-32,5.5V104a8,8,0,0,0-8-8H152a8,8,0,0,0,0,16h8v8H107.31l-6.87-16H112a8,8,0,0,0,0-16H88a8,8,0,0,0,0,16h.43l8.62,20.1L80,154.43V148a8,8,0,0,0-16,0v16a8,8,0,0,0,8,8H88a48,48,0,1,0,48-48H124.69l22.66-22.66,4.09,9.54A96,96,0,1,0,208,208a96,96,0,0,0,0-192ZM88,196a32,32,0,1,1,28.59-46.34L98.35,168A8,8,0,1,0,111.65,174l18.24-18.24A32,32,0,0,1,88,196Zm120,0a80,80,0,0,1-64.06-32h32.44a48,48,0,0,0,3.24-80h0l5.59,13a8,8,0,0,0,7.37,4.94,8.08,8.08,0,0,0,3.07-.61,8,8,0,0,0,4.33-10.44L191.56,72H208a80,80,0,0,1,0,160Z"/></svg>
