<svg xmlns="http://www.w3.org/2000/svg" width="160" height="160" viewBox="0 0 160 160" fill="none">
    <path d="M154.506 107.831C154.098 106.983 153.458 106.267 152.661 105.766C151.864 105.265 150.941 105 150 105H90V90H135C135.968 89.9999 136.916 89.7185 137.728 89.1901C138.539 88.6616 139.18 87.9088 139.572 87.0231C139.964 86.1374 140.09 85.157 139.935 84.2009C139.78 83.2448 139.351 82.3543 138.7 81.6375L90 28.0688V5C89.9944 3.96938 89.6705 2.96566 89.0725 2.1262C88.4746 1.28675 87.6318 0.652583 86.6596 0.310496C85.6874 -0.0315908 84.6332 -0.0648839 83.6414 0.215173C82.6495 0.495231 81.7684 1.07495 81.1187 1.875L16.1187 81.875C15.5311 82.6089 15.1623 83.4936 15.0547 84.4276C14.947 85.3615 15.1049 86.3069 15.5101 87.1552C15.9154 88.0036 16.5516 88.7205 17.3457 89.2236C18.1399 89.7268 19.0598 89.9959 20 90H80V105H9.99996C9.05769 104.999 8.13444 105.265 7.33661 105.766C6.53878 106.268 5.89884 106.984 5.49057 107.834C5.08229 108.683 4.92229 109.63 5.029 110.566C5.13571 111.502 5.50479 112.389 6.09371 113.125L24.5937 136.25C25.5285 137.423 26.716 138.369 28.0677 139.018C29.4195 139.668 30.9004 140.003 32.4 140H127.6C129.1 140.003 130.58 139.668 131.932 139.018C133.284 138.369 134.471 137.423 135.406 136.25L153.906 113.125C154.495 112.389 154.864 111.501 154.97 110.565C155.076 109.628 154.915 108.68 154.506 107.831ZM123.7 80H90V42.9313L123.7 80ZM30.5062 80L80 19.0813V80H30.5062ZM127.6 130H32.4L20.4 115H139.6L127.6 130Z" fill="white"/>
</svg>