<svg xmlns="http://www.w3.org/2000/svg" width="24" height="24" viewBox="0 0 256 256" fill="white"><path d="M232,192a8,8,0,0,1-8,8c-17.88,0-29.55-8.2-39.5-15.27C175.12,178,166.18,172,152,172s-23.12,6-32.5,12.73C109.55,191.8,97.88,200,80,200s-29.55-8.2-39.5-15.27C30.18,178,21.24,172,8,172a8,8,0,0,1,0-16c17.88,0,29.55,8.2,39.5,15.27C57.88,178,66.82,184,80,184s22.12-6,31.5-12.73C121.45,164.2,133.12,156,152,156s30.55,8.2,40.5,15.27C202.82,178,211.76,184,224,184A8,8,0,0,1,232,192ZM120,156.54V88h48L120,156.54ZM104,32V156.54L56,88h48V32ZM48,152h0Z"/></svg>
