<svg xmlns="http://www.w3.org/2000/svg" width="160" height="160" viewBox="0 0 160 160" fill="none">
    <path d="M150 70H132.069L105 42.9312C104.075 41.9986 102.973 41.2592 101.76 40.756C100.546 40.2528 99.2449 39.9958 97.9313 40H27.675C26.0325 40.003 24.416 40.4106 22.9684 41.1868C21.5207 41.9629 20.2866 43.0836 19.375 44.45L0.8375 72.225C0.292824 73.0481 0.00163036 74.013 0 75L0 105C0 107.652 1.05357 110.196 2.92893 112.071C4.8043 113.946 7.34784 115 10 115H20.625C21.7265 119.302 24.2285 123.115 27.7366 125.838C31.2446 128.561 35.5591 130.039 40 130.039C44.4409 130.039 48.7554 128.561 52.2635 125.838C55.7715 123.115 58.2735 119.302 59.375 115H100.625C101.727 119.302 104.229 123.115 107.737 125.838C111.245 128.561 115.559 130.039 120 130.039C124.441 130.039 128.755 128.561 132.263 125.838C135.771 123.115 138.273 119.302 139.375 115H150C152.652 115 155.196 113.946 157.071 112.071C158.946 110.196 160 107.652 160 105V80C160 77.3478 158.946 74.8043 157.071 72.9289C155.196 71.0536 152.652 70 150 70ZM27.675 50H97.9313L117.931 70H14.375L27.675 50ZM40 120C38.0222 120 36.0888 119.414 34.4443 118.315C32.7998 117.216 31.5181 115.654 30.7612 113.827C30.0043 112 29.8063 109.989 30.1921 108.049C30.578 106.109 31.5304 104.327 32.9289 102.929C34.3275 101.53 36.1093 100.578 38.0491 100.192C39.9889 99.8063 41.9996 100.004 43.8268 100.761C45.6541 101.518 47.2159 102.8 48.3147 104.444C49.4135 106.089 50 108.022 50 110C50 112.652 48.9464 115.196 47.0711 117.071C45.1957 118.946 42.6522 120 40 120ZM120 120C118.022 120 116.089 119.414 114.444 118.315C112.8 117.216 111.518 115.654 110.761 113.827C110.004 112 109.806 109.989 110.192 108.049C110.578 106.109 111.53 104.327 112.929 102.929C114.327 101.53 116.109 100.578 118.049 100.192C119.989 99.8063 122 100.004 123.827 100.761C125.654 101.518 127.216 102.8 128.315 104.444C129.414 106.089 130 108.022 130 110C130 112.652 128.946 115.196 127.071 117.071C125.196 118.946 122.652 120 120 120ZM150 105H139.375C138.273 100.698 135.771 96.8848 132.263 94.1618C128.755 91.4388 124.441 89.9608 120 89.9608C115.559 89.9608 111.245 91.4388 107.737 94.1618C104.229 96.8848 101.727 100.698 100.625 105H59.375C58.2735 100.698 55.7715 96.8848 52.2635 94.1618C48.7554 91.4388 44.4409 89.9608 40 89.9608C35.5591 89.9608 31.2446 91.4388 27.7366 94.1618C24.2285 96.8848 21.7265 100.698 20.625 105H10V80H150V105Z" fill="white"/>
</svg>