<svg xmlns="http://www.w3.org/2000/svg" width="24" height="24" viewBox="0 0 24 24" fill="none">
    <path d="M21.4576 2.45531C21.3414 2.35497 21.2 2.28824 21.0487 2.2623C20.8974 2.23636 20.7419 2.25221 20.5989 2.30812L1.59949 9.74344C1.33023 9.84814 1.10226 10.0375 0.949919 10.283C0.797576 10.5284 0.729099 10.8168 0.754798 11.1045C0.780496 11.3923 0.898979 11.6639 1.09241 11.8785C1.28584 12.0931 1.54375 12.239 1.8273 12.2944L6.75011 13.2609V18.75C6.74915 19.049 6.838 19.3414 7.00515 19.5893C7.17231 19.8372 7.41007 20.0291 7.68761 20.1403C7.96473 20.2535 8.26949 20.2806 8.56225 20.2183C8.85501 20.1559 9.12224 20.0069 9.32918 19.7906L11.7029 17.3287L15.4689 20.625C15.7406 20.866 16.091 20.9994 16.4542 21C16.6133 20.9999 16.7715 20.9749 16.9229 20.9259C17.1704 20.8474 17.3929 20.7054 17.5684 20.5141C17.744 20.3228 17.8663 20.0889 17.9232 19.8356L21.7286 3.28125C21.7626 3.13195 21.7554 2.97621 21.7076 2.83071C21.6599 2.68521 21.5735 2.55544 21.4576 2.45531ZM15.7257 5.83031L7.32668 11.8453L2.67668 10.9331L15.7257 5.83031ZM8.25011 18.75V14.2987L10.5742 16.3369L8.25011 18.75ZM16.4561 19.5L8.7048 12.7031L19.8611 4.70719L16.4561 19.5Z" fill="white"/>
</svg>