<svg xmlns="http://www.w3.org/2000/svg" width="24" height="24" viewBox="0 0 24 24" fill="none">
    <path d="M21 6.75C19.8069 6.74876 18.663 6.27425 17.8194 5.43061C16.9757 4.58697 16.5012 3.44309 16.5 2.25C16.5 2.05109 16.421 1.86032 16.2803 1.71967C16.1397 1.57902 15.9489 1.5 15.75 1.5H12C11.8011 1.5 11.6103 1.57902 11.4697 1.71967C11.329 1.86032 11.25 2.05109 11.25 2.25V14.625C11.2498 14.9605 11.1597 15.2898 10.9889 15.5786C10.8181 15.8674 10.5729 16.1051 10.279 16.2668C9.98501 16.4286 9.65304 16.5085 9.31768 16.4983C8.98232 16.488 8.65586 16.388 8.37234 16.2085C8.08883 16.0291 7.85865 15.7769 7.70582 15.4782C7.55299 15.1795 7.4831 14.8453 7.50345 14.5104C7.5238 14.1755 7.63364 13.8522 7.82151 13.5742C8.00939 13.2962 8.26841 13.0738 8.57156 12.93C8.6998 12.8691 8.80813 12.7731 8.88397 12.6532C8.95981 12.5332 9.00005 12.3941 9 12.2522V8.25C9.00005 8.14037 8.97606 8.03206 8.92972 7.9327C8.88339 7.83334 8.81584 7.74535 8.73182 7.67492C8.6478 7.60449 8.54937 7.55333 8.44345 7.52505C8.33752 7.49678 8.22669 7.49206 8.11875 7.51125C4.77281 8.1075 2.25 11.1656 2.25 14.625C2.25 16.5147 3.00067 18.3269 4.33686 19.6631C5.67306 20.9993 7.48533 21.75 9.375 21.75C11.2647 21.75 13.0769 20.9993 14.4131 19.6631C15.7493 18.3269 16.5 16.5147 16.5 14.625V10.9022C17.889 11.6269 19.4333 12.0036 21 12C21.1989 12 21.3897 11.921 21.5303 11.7803C21.671 11.6397 21.75 11.4489 21.75 11.25V7.5C21.75 7.30109 21.671 7.11032 21.5303 6.96967C21.3897 6.82902 21.1989 6.75 21 6.75ZM20.25 10.4662C18.7843 10.3364 17.3809 9.81329 16.1878 8.95219C16.0757 8.87156 15.9434 8.82347 15.8057 8.81321C15.668 8.80295 15.5301 8.83092 15.4072 8.89404C15.2844 8.95716 15.1814 9.05298 15.1095 9.17093C15.0376 9.28888 14.9997 9.42438 15 9.5625V14.625C15 16.1168 14.4074 17.5476 13.3525 18.6025C12.2976 19.6574 10.8668 20.25 9.375 20.25C7.88316 20.25 6.45242 19.6574 5.39752 18.6025C4.34263 17.5476 3.75 16.1168 3.75 14.625C3.75 12.1969 5.31 10.0191 7.5 9.225V11.8191C7.01517 12.143 6.62254 12.587 6.36037 13.1079C6.09821 13.6287 5.97545 14.2086 6.00407 14.7909C6.03268 15.3733 6.2117 15.9384 6.52366 16.431C6.83562 16.9236 7.26989 17.327 7.78414 17.6018C8.29839 17.8767 8.87508 18.0136 9.458 17.9993C10.0409 17.9849 10.6102 17.8198 11.1103 17.52C11.6104 17.2202 12.0243 16.796 12.3117 16.2886C12.599 15.7812 12.7501 15.2081 12.75 14.625V3H15.0469C15.2155 4.32101 15.818 5.54866 16.7597 6.49034C17.7013 7.43203 18.929 8.03446 20.25 8.20312V10.4662Z" fill="white"/>
</svg>