<svg xmlns="http://www.w3.org/2000/svg" width="24" height="24" viewBox="0 0 256 256" fill="white"><path d="M152,80a32,32,0,1,0-32-32A32,32,0,0,0,152,80Zm-21.34,96L117.2,224.43a8,8,0,1,1-15.6-3.63L128.7,96.78a38,38,0,0,0-10.36-3.9L95.43,87.2A8,8,0,1,1,99.17,71.6l22.91,5.68a54.07,54.07,0,0,1,35,25.71l13.15,21.84,21.35,5.34A8,8,0,0,1,187.69,146l-24.91-6.22a8,8,0,0,1-5.35-4.67l-5.77-13.08ZM48.48,240.35a8,8,0,0,0,10.17-4.93L80.1,175.77l-10-43.47A8,8,0,0,0,54.49,137l9.21,40-20.15,55.22A8,8,0,0,0,48.48,240.35Z"/></svg>
