<svg xmlns="http://www.w3.org/2000/svg" width="160" height="160" viewBox="0 0 160 160" fill="none">
    <path d="M95 55C98.9556 55 102.822 53.827 106.111 51.6294C109.4 49.4318 111.964 46.3082 113.478 42.6537C114.991 38.9992 115.387 34.9778 114.616 31.0982C113.844 27.2186 111.939 23.6549 109.142 20.8579C106.345 18.0608 102.781 16.156 98.9018 15.3843C95.0222 14.6126 91.0008 15.0087 87.3463 16.5224C83.6918 18.0362 80.5682 20.5996 78.3706 23.8886C76.173 27.1776 75 31.0444 75 35C75 40.3043 77.1071 45.3914 80.8579 49.1421C84.6086 52.8929 89.6957 55 95 55ZM95 25C96.9778 25 98.9112 25.5865 100.556 26.6853C102.2 27.7841 103.482 29.3459 104.239 31.1732C104.996 33.0004 105.194 35.0111 104.808 36.9509C104.422 38.8907 103.47 40.6726 102.071 42.0711C100.673 43.4696 98.8907 44.422 96.9509 44.8079C95.0111 45.1937 93.0004 44.9957 91.1731 44.2388C89.3459 43.4819 87.7841 42.2002 86.6853 40.5557C85.5865 38.9112 85 36.9778 85 35C85 32.3478 86.0536 29.8043 87.9289 27.9289C89.8043 26.0536 92.3478 25 95 25ZM137.069 87.925C136.687 88.1 132.387 89.975 124.775 89.975C116.119 89.975 103.181 87.55 86.8437 77.475C84.3571 84.5341 81.1287 91.3096 77.2125 97.6875C84.2465 99.8529 90.863 103.194 96.7812 107.569C108.7 116.656 115 129.594 115 145C115 146.326 114.473 147.598 113.536 148.536C112.598 149.473 111.326 150 110 150C108.674 150 107.402 149.473 106.464 148.536C105.527 147.598 105 146.326 105 145C105 118.938 83.3187 109.556 71.1625 106.344C70.8187 106.781 70.4625 107.225 70.1062 107.656C57.8312 122.531 42.45 130.269 25.3375 130.269C23.3884 130.278 21.44 130.188 19.5 130C18.1739 129.867 16.9548 129.213 16.1109 128.182C15.267 127.151 14.8674 125.826 15 124.5C15.1326 123.174 15.7866 121.955 16.818 121.111C17.8495 120.267 19.1739 119.867 20.5 120C36.7 121.613 50.7937 115.319 62.375 101.25C70.1812 91.7875 75.5 80.2438 78.1562 71.875C53.8312 57.7188 38.2937 69.7688 38.125 69.9C37.6157 70.3349 37.0241 70.6631 36.3856 70.865C35.747 71.0669 35.0743 71.1385 34.4075 71.0754C33.7408 71.0124 33.0935 70.816 32.504 70.498C31.9146 70.18 31.395 69.7468 30.9762 69.2242C30.5575 68.7015 30.2479 68.1 30.066 67.4554C29.8842 66.8109 29.8336 66.1363 29.9175 65.4718C30.0013 64.8073 30.2178 64.1665 30.554 63.5873C30.8903 63.008 31.3395 62.5023 31.875 62.1C32.8125 61.35 55.1375 43.975 87.8187 66.2063C116.237 85.525 132.775 78.9 132.931 78.825C133.53 78.5421 134.18 78.3811 134.841 78.3513C135.503 78.3214 136.164 78.4234 136.786 78.6513C137.408 78.8792 137.979 79.2284 138.465 79.6786C138.951 80.1289 139.342 80.6712 139.617 81.2741C139.891 81.877 140.043 82.5285 140.064 83.1906C140.085 83.8527 139.973 84.5124 139.737 85.1312C139.5 85.75 139.143 86.3156 138.686 86.7952C138.229 87.2749 137.682 87.6589 137.075 87.925H137.069Z" fill="white"/>
</svg>