<svg xmlns="http://www.w3.org/2000/svg" width="24" height="24" viewBox="0 0 24 24" fill="none">
    <path d="M17.5857 13.5787L14.5857 12.0787C14.4676 12.0199 14.3361 11.9933 14.2044 12.0015C14.0727 12.0097 13.9455 12.0525 13.8357 12.1256L12.4585 13.0444C11.8263 12.6968 11.306 12.1766 10.9585 11.5444L11.8772 10.1672C11.9503 10.0573 11.9932 9.93016 12.0014 9.79848C12.0096 9.6668 11.983 9.53528 11.9241 9.41719L10.4241 6.41719C10.3619 6.29163 10.2658 6.186 10.1467 6.11226C10.0276 6.03853 9.89016 5.99964 9.75005 6C8.75549 6 7.80166 6.39509 7.0984 7.09835C6.39514 7.80161 6.00005 8.75544 6.00005 9.75C6.00253 11.9373 6.87252 14.0343 8.41916 15.5809C9.9658 17.1275 12.0628 17.9975 14.2501 18C14.7425 18 15.2301 17.903 15.6851 17.7145C16.1401 17.5261 16.5535 17.2499 16.9017 16.9017C17.2499 16.5534 17.5261 16.14 17.7146 15.6851C17.9031 15.2301 18.0001 14.7425 18.0001 14.25C18.0002 14.1107 17.9614 13.9741 17.8882 13.8555C17.8151 13.7369 17.7103 13.6411 17.5857 13.5787ZM14.2501 16.5C12.4605 16.498 10.7447 15.7862 9.47927 14.5208C8.21383 13.2553 7.50204 11.5396 7.50005 9.75C7.49991 9.2298 7.68002 8.72562 8.00974 8.32326C8.33945 7.9209 8.79841 7.64521 9.30849 7.54313L10.3847 9.69938L9.4688 11.0625C9.40036 11.1652 9.3583 11.2831 9.34636 11.406C9.33443 11.5288 9.35297 11.6526 9.40036 11.7666C9.93698 13.0419 10.9516 14.0565 12.2269 14.5931C12.3412 14.6426 12.466 14.6629 12.5901 14.6521C12.7141 14.6413 12.8336 14.5998 12.9376 14.5312L14.3072 13.6181L16.4635 14.6944C16.3606 15.205 16.0837 15.6642 15.6801 15.9935C15.2764 16.3228 14.771 16.5018 14.2501 16.5ZM12.0001 2.25C10.3167 2.24963 8.66201 2.68508 7.19691 3.51396C5.73182 4.34285 4.50628 5.53692 3.63959 6.97997C2.77289 8.42301 2.29457 10.0659 2.25117 11.7486C2.20777 13.4314 2.60077 15.0967 3.39193 16.5825L2.32787 19.7747C2.23973 20.039 2.22693 20.3226 2.29093 20.5938C2.35492 20.8649 2.49316 21.1129 2.69016 21.3099C2.88717 21.5069 3.13514 21.6451 3.4063 21.7091C3.67745 21.7731 3.96107 21.7603 4.22537 21.6722L7.41755 20.6081C8.72515 21.3036 10.174 21.6921 11.6541 21.744C13.1343 21.7959 14.6068 21.51 15.9599 20.9079C17.3131 20.3057 18.5112 19.4033 19.4635 18.269C20.4158 17.1346 21.0971 15.7983 21.4558 14.3613C21.8145 12.9244 21.8411 11.4246 21.5336 9.97578C21.2261 8.52701 20.5926 7.16732 19.6812 5.99992C18.7698 4.83253 17.6044 3.88811 16.2735 3.23836C14.9426 2.58861 13.4811 2.25061 12.0001 2.25ZM12.0001 20.25C10.5497 20.251 9.12483 19.8691 7.86943 19.1428C7.77751 19.0895 7.67532 19.0563 7.56962 19.0455C7.46391 19.0347 7.35712 19.0464 7.2563 19.08L3.75005 20.25L4.91912 16.7438C4.95281 16.643 4.96473 16.5362 4.95406 16.4305C4.94339 16.3248 4.91039 16.2226 4.85724 16.1306C3.94784 14.5584 3.58272 12.7299 3.81852 10.929C4.05432 9.12801 4.87786 7.4552 6.16139 6.17006C7.44491 4.88491 9.11667 4.05925 10.9173 3.82118C12.718 3.5831 14.5469 3.94591 16.1203 4.85333C17.6937 5.76074 18.9237 7.16204 19.6194 8.83983C20.3152 10.5176 20.4378 12.3781 19.9683 14.1327C19.4987 15.8873 18.4633 17.4379 17.0226 18.5439C15.5818 19.65 13.8164 20.2497 12.0001 20.25Z" fill="white"/>
</svg>